<svg width="104.816" height="57.525" viewBox="0 0 104.816 57.525" xmlns="http://www.w3.org/2000/svg"><g id="svgGroup" stroke-linecap="round" fill-rule="evenodd" font-size="9pt" stroke="#000000" stroke-width="0.25mm" fill="#000000" style="stroke:#000000;stroke-width:0.25mm;fill:#000000"><path d="M 32.422 17.022 Q 33.008 17.241 33.679 17.412 A 15.757 15.757 0 0 0 35.022 17.693 A 43.167 43.167 0 0 0 36.34 17.888 A 14.061 14.061 0 0 0 37.5 17.998 A 28.585 28.585 0 0 1 39.819 12.725 Q 41.211 10.283 42.859 8.281 A 27.526 27.526 0 0 1 46.326 4.741 A 26.64 26.64 0 0 1 49.939 2.141 A 17.149 17.149 0 0 1 53.406 0.542 A 10.093 10.093 0 0 1 56.47 0.005 Q 58.252 0.005 59.338 0.933 Q 60.425 1.86 60.425 3.814 Q 60.425 4.961 59.778 6.377 Q 59.131 7.793 57.935 9.295 A 24.3 24.3 0 0 1 55.029 12.31 A 30.099 30.099 0 0 1 51.184 15.178 Q 49.048 16.533 46.521 17.644 Q 43.994 18.755 41.187 19.439 Q 40.088 22.417 38.916 25.505 A 151.982 151.982 0 0 1 36.426 31.658 A 89.836 89.836 0 0 1 33.582 37.651 Q 32.056 40.581 30.2 43.242 A 763.834 763.834 0 0 0 34.509 47.039 Q 36.646 48.906 38.867 50.371 A 23.121 23.121 0 0 0 43.457 52.727 A 14.092 14.092 0 0 0 48.462 53.618 Q 51.343 53.618 54.614 52.349 A 28.802 28.802 0 0 0 61.599 48.193 A 46.531 46.531 0 0 0 61.719 48.101 Q 64.307 46.392 66.016 45.586 A 6.855 6.855 0 0 1 68.506 44.78 A 0.486 0.486 0 0 1 69.116 45.244 A 4.104 4.104 0 0 1 67.882 47.263 A 18.383 18.383 0 0 1 67.712 47.454 A 33.067 33.067 0 0 1 64.035 50.775 A 75.73 75.73 0 0 1 63.281 51.372 A 40.467 40.467 0 0 1 59.363 54.204 A 25.14 25.14 0 0 1 55.75 56.109 Q 54.004 56.841 52.393 57.183 Q 50.781 57.525 49.292 57.525 A 13.987 13.987 0 0 1 43.701 56.389 Q 41.064 55.254 38.599 53.447 A 53.297 53.297 0 0 1 33.728 49.395 A 382.002 382.002 0 0 0 28.833 44.902 A 30.914 30.914 0 0 1 25.391 48.381 A 22.437 22.437 0 0 1 21.472 51.091 A 19.908 19.908 0 0 1 17.029 52.849 Q 14.673 53.472 12.012 53.472 Q 8.936 53.472 6.665 52.593 A 10.943 10.943 0 0 1 2.917 50.274 Q 1.44 48.833 0.72 46.99 A 10.219 10.219 0 0 1 0 43.242 Q 0 41.362 0.684 39.556 Q 1.367 37.749 2.686 36.345 A 9.817 9.817 0 0 1 5.957 34.087 Q 7.91 33.233 10.449 33.233 A 18.411 18.411 0 0 1 15.161 33.818 A 23.773 23.773 0 0 1 19.434 35.393 A 28.061 28.061 0 0 1 23.364 37.7 A 60.225 60.225 0 0 1 27.026 40.484 A 84.07 84.07 0 0 0 29.749 35.442 A 169.681 169.681 0 0 0 32.288 30.108 A 325.33 325.33 0 0 0 34.705 24.663 A 613.159 613.159 0 0 1 37.061 19.292 A 20.094 20.094 0 0 1 35.913 19.255 Q 35.278 19.219 34.595 19.17 A 24.628 24.628 0 0 1 33.24 19.036 A 16.215 16.215 0 0 1 31.982 18.828 A 22.228 22.228 0 0 0 29.724 18.547 A 12.915 12.915 0 0 1 27.539 18.206 A 5.797 5.797 0 0 1 25.696 17.4 A 3.459 3.459 0 0 1 24.438 15.752 A 2.32 2.32 0 0 1 24.243 14.849 A 1.723 1.723 0 0 1 24.39 14.165 A 1.98 1.98 0 0 1 24.817 13.543 A 2.207 2.207 0 0 1 25.476 13.091 Q 25.854 12.92 26.318 12.92 Q 27.075 12.92 27.93 13.384 A 11.658 11.658 0 0 1 29.614 14.507 A 23.344 23.344 0 0 1 31.177 15.862 Q 31.909 16.558 32.422 17.022 Z M 46.655 36.065 L 44.116 37.554 A 0.955 0.955 0 0 1 43.555 37.725 A 0.719 0.719 0 0 1 43.042 37.542 A 0.623 0.623 0 0 1 42.847 37.066 A 1.308 1.308 0 0 1 43.127 36.345 A 3.111 3.111 0 0 1 44.116 35.527 L 50.293 31.89 Q 50.977 29.961 52.063 28.557 A 11.081 11.081 0 0 1 54.456 26.238 A 10.01 10.01 0 0 1 57.19 24.871 A 9.169 9.169 0 0 1 59.961 24.419 A 3.477 3.477 0 0 1 62.219 25.139 A 2.702 2.702 0 0 1 63.11 27.373 Q 63.11 28.301 62.439 29.314 Q 61.768 30.327 60.608 31.316 Q 59.448 32.305 57.886 33.159 Q 56.323 34.014 54.565 34.6 A 63.864 63.864 0 0 1 54.529 36.821 Q 54.492 37.871 54.492 38.799 A 19.092 19.092 0 0 0 54.541 40.227 A 4.327 4.327 0 0 0 54.749 41.326 A 1.699 1.699 0 0 0 55.188 42.034 A 1.027 1.027 0 0 0 55.908 42.29 A 3.489 3.489 0 0 0 57.556 41.741 Q 58.521 41.192 59.985 40.337 Q 61.304 39.556 63.354 38.384 A 6634.628 6634.628 0 0 1 68.336 35.541 A 3.257 3.257 0 0 1 68.359 35.527 A 0.439 0.439 0 0 1 68.405 35.501 A 588.475 588.475 0 0 0 74.683 31.78 A 278.899 278.899 0 0 1 79.199 29.107 A 43.832 43.832 0 0 1 82.52 27.349 A 17.977 17.977 0 0 1 85.242 26.323 A 14.756 14.756 0 0 1 87.964 25.835 A 39.256 39.256 0 0 1 91.284 25.713 A 5.319 5.319 0 0 1 93.762 26.275 A 5.443 5.443 0 0 1 95.593 27.8 A 6.933 6.933 0 0 1 96.729 30.059 Q 97.119 31.353 97.119 32.817 A 10.11 10.11 0 0 1 96.924 34.697 A 15.983 15.983 0 0 1 96.362 36.809 Q 95.996 37.896 95.471 38.97 Q 94.946 40.044 94.312 40.947 Q 94.775 40.703 95.435 40.337 A 117.122 117.122 0 0 0 96.838 39.544 A 361.444 361.444 0 0 1 98.401 38.652 Q 99.219 38.189 100 37.749 L 103.784 35.527 A 0.936 0.936 0 0 1 104.248 35.43 A 0.507 0.507 0 0 1 104.81 36.016 A 1.991 1.991 0 0 1 103.784 37.554 A 87.07 87.07 0 0 1 101.489 39.019 Q 100.073 39.898 98.425 40.74 Q 96.777 41.582 95.081 42.229 A 10.984 10.984 0 0 1 91.919 42.974 A 16.031 16.031 0 0 1 87.451 45.256 Q 84.888 46.123 81.47 46.123 Q 79.785 46.123 78.625 45.83 Q 77.466 45.537 76.758 44.976 Q 76.05 44.414 75.732 43.596 A 5.209 5.209 0 0 1 75.415 41.704 Q 75.415 40.142 76.05 38.359 Q 76.685 36.577 77.625 34.88 Q 78.564 33.184 79.639 31.719 Q 80.713 30.254 81.592 29.302 A 22.024 22.024 0 0 1 79.382 30.938 Q 77.954 31.89 76.16 32.976 A 254 254 0 0 1 72.351 35.234 A 3930.176 3930.176 0 0 1 68.509 37.467 A 2.091 2.091 0 0 1 68.359 37.554 A 140.489 140.489 0 0 0 63.672 40.471 A 139.702 139.702 0 0 1 59.387 43.157 A 36.193 36.193 0 0 1 55.664 45.134 A 7.46 7.46 0 0 1 52.686 45.903 Q 51.831 45.903 51.184 45.537 Q 50.537 45.171 50.085 44.365 Q 49.634 43.56 49.402 42.254 Q 49.17 40.947 49.17 39.067 A 18.706 18.706 0 0 1 49.207 38.128 A 24.301 24.301 0 0 1 49.329 36.736 A 25.987 25.987 0 0 1 49.536 35.283 Q 49.658 34.575 49.829 34.185 A 39.852 39.852 0 0 0 49.329 34.478 A 131.584 131.584 0 0 1 48.56 34.929 Q 48.12 35.186 47.632 35.479 L 46.655 36.065 Z M 11.743 51.616 Q 14.087 51.616 16.089 50.933 A 14.712 14.712 0 0 0 19.824 49.028 Q 21.558 47.808 23.047 46.111 Q 24.536 44.414 25.854 42.388 Q 24.146 41.045 22.327 39.873 A 27.981 27.981 0 0 0 18.53 37.822 Q 16.553 36.943 14.392 36.443 A 20.237 20.237 0 0 0 9.814 35.942 A 5.073 5.073 0 0 0 7.288 36.553 A 5.667 5.667 0 0 0 5.469 38.164 A 7.336 7.336 0 0 0 4.358 40.459 A 9.518 9.518 0 0 0 3.979 43.145 Q 3.979 44.683 4.456 46.209 Q 4.932 47.734 5.884 48.931 A 7.219 7.219 0 0 0 8.301 50.872 A 7.505 7.505 0 0 0 11.743 51.616 Z M 81.519 44.024 Q 83.057 44.024 84.521 43.389 A 12.89 12.89 0 0 0 87.378 41.655 A 2.048 2.048 0 0 1 86.938 40.825 A 3.726 3.726 0 0 1 86.816 39.873 Q 86.816 39.019 87.378 38.591 A 2.153 2.153 0 0 1 88.721 38.164 A 3.002 3.002 0 0 1 90.332 38.652 Q 91.113 38.091 91.821 37.31 A 10.443 10.443 0 0 0 93.054 35.65 A 9.008 9.008 0 0 0 93.884 33.843 Q 94.189 32.915 94.189 32.036 A 3.846 3.846 0 0 0 93.909 30.584 A 3.016 3.016 0 0 0 93.005 29.375 A 4.664 4.664 0 0 0 91.37 28.557 Q 90.356 28.252 88.916 28.252 Q 87.72 28.252 86.536 28.887 A 10.066 10.066 0 0 0 84.265 30.584 A 16.584 16.584 0 0 0 82.239 33.001 A 19.78 19.78 0 0 0 80.615 35.796 A 17.897 17.897 0 0 0 79.541 38.628 Q 79.15 40.02 79.15 41.167 Q 79.15 42.437 79.712 43.23 Q 80.273 44.024 81.519 44.024 Z M 41.699 17.583 A 26.382 26.382 0 0 0 46.204 15.569 A 34.249 34.249 0 0 0 50.159 12.969 Q 51.978 11.577 53.442 10.088 A 28.137 28.137 0 0 0 55.945 7.207 A 14.876 14.876 0 0 0 57.532 4.631 A 4.919 4.919 0 0 0 58.081 2.666 A 0.982 0.982 0 0 0 56.958 1.567 A 5.262 5.262 0 0 0 54.883 2.153 Q 53.613 2.739 52.136 3.814 Q 50.659 4.888 49.084 6.365 A 30.301 30.301 0 0 0 46.094 9.624 A 30.781 30.781 0 0 0 43.518 13.421 A 20.199 20.199 0 0 0 41.699 17.583 Z M 60.474 27.568 A 0.998 0.998 0 0 0 60.522 27.251 A 1.575 1.575 0 0 0 60.315 26.348 Q 60.107 26.055 59.619 26.055 A 2.651 2.651 0 0 0 58.325 26.482 A 5.563 5.563 0 0 0 56.897 27.739 Q 56.201 28.569 55.652 29.815 A 10.052 10.052 0 0 0 54.907 32.671 A 16.218 16.218 0 0 0 56.86 31.487 Q 57.813 30.816 58.582 30.12 Q 59.351 29.424 59.851 28.753 Q 60.352 28.081 60.474 27.568 Z"/></g></svg>